<svg xmlns="http://www.w3.org/2000/svg" xmlns:xlink="http://www.w3.org/1999/xlink" width="1024" zoomAndPan="magnify" viewBox="0 0 768 767.999994" height="1024" preserveAspectRatio="xMidYMid meet" version="1.0"><defs><clipPath id="5e496953c3"><path d="M 63.066406 124 L 702 124 L 702 662.777344 L 63.066406 662.777344 Z M 63.066406 124 " clip-rule="nonzero"/></clipPath><clipPath id="5c4ce5210f"><path d="M 156 242 L 594 242 L 594 486 L 156 486 Z M 156 242 " clip-rule="nonzero"/></clipPath><clipPath id="f1c11507fb"><path d="M 114.832031 286.875 L 449.234375 105.683594 L 630.425781 440.089844 L 296.019531 621.28125 Z M 114.832031 286.875 " clip-rule="nonzero"/></clipPath><clipPath id="c5cabd293a"><path d="M 114.832031 286.875 L 449.234375 105.683594 L 630.425781 440.089844 L 296.019531 621.28125 Z M 114.832031 286.875 " clip-rule="nonzero"/></clipPath><clipPath id="3d5ee7a10d"><path d="M 307 384 L 329 384 L 329 401 L 307 401 Z M 307 384 " clip-rule="nonzero"/></clipPath><clipPath id="7d27f33dfd"><path d="M 114.832031 286.875 L 449.234375 105.683594 L 630.425781 440.089844 L 296.019531 621.28125 Z M 114.832031 286.875 " clip-rule="nonzero"/></clipPath><clipPath id="65d9d48c4a"><path d="M 114.832031 286.875 L 449.234375 105.683594 L 630.425781 440.089844 L 296.019531 621.28125 Z M 114.832031 286.875 " clip-rule="nonzero"/></clipPath><clipPath id="070f7608aa"><path d="M 334 392 L 357 392 L 357 409 L 334 409 Z M 334 392 " clip-rule="nonzero"/></clipPath><clipPath id="755bd8784c"><path d="M 114.832031 286.875 L 449.234375 105.683594 L 630.425781 440.089844 L 296.019531 621.28125 Z M 114.832031 286.875 " clip-rule="nonzero"/></clipPath><clipPath id="98ce402984"><path d="M 114.832031 286.875 L 449.234375 105.683594 L 630.425781 440.089844 L 296.019531 621.28125 Z M 114.832031 286.875 " clip-rule="nonzero"/></clipPath><clipPath id="250900e6ce"><path d="M 369 402 L 391 402 L 391 419 L 369 419 Z M 369 402 " clip-rule="nonzero"/></clipPath><clipPath id="278715400e"><path d="M 114.832031 286.875 L 449.234375 105.683594 L 630.425781 440.089844 L 296.019531 621.28125 Z M 114.832031 286.875 " clip-rule="nonzero"/></clipPath><clipPath id="bfc4c3adec"><path d="M 114.832031 286.875 L 449.234375 105.683594 L 630.425781 440.089844 L 296.019531 621.28125 Z M 114.832031 286.875 " clip-rule="nonzero"/></clipPath><clipPath id="0cbffe2f90"><path d="M 396 410 L 419 410 L 419 428 L 396 428 Z M 396 410 " clip-rule="nonzero"/></clipPath><clipPath id="0dac9c3519"><path d="M 114.832031 286.875 L 449.234375 105.683594 L 630.425781 440.089844 L 296.019531 621.28125 Z M 114.832031 286.875 " clip-rule="nonzero"/></clipPath><clipPath id="a6b7b0207f"><path d="M 114.832031 286.875 L 449.234375 105.683594 L 630.425781 440.089844 L 296.019531 621.28125 Z M 114.832031 286.875 " clip-rule="nonzero"/></clipPath><clipPath id="0285789dea"><path d="M 315 356 L 337 356 L 337 373 L 315 373 Z M 315 356 " clip-rule="nonzero"/></clipPath><clipPath id="45aa64d0b7"><path d="M 114.832031 286.875 L 449.234375 105.683594 L 630.425781 440.089844 L 296.019531 621.28125 Z M 114.832031 286.875 " clip-rule="nonzero"/></clipPath><clipPath id="baeee85bde"><path d="M 114.832031 286.875 L 449.234375 105.683594 L 630.425781 440.089844 L 296.019531 621.28125 Z M 114.832031 286.875 " clip-rule="nonzero"/></clipPath><clipPath id="cf6ca4cee0"><path d="M 343 364 L 365 364 L 365 382 L 343 382 Z M 343 364 " clip-rule="nonzero"/></clipPath><clipPath id="18812b50b8"><path d="M 114.832031 286.875 L 449.234375 105.683594 L 630.425781 440.089844 L 296.019531 621.28125 Z M 114.832031 286.875 " clip-rule="nonzero"/></clipPath><clipPath id="16fbd48894"><path d="M 114.832031 286.875 L 449.234375 105.683594 L 630.425781 440.089844 L 296.019531 621.28125 Z M 114.832031 286.875 " clip-rule="nonzero"/></clipPath><clipPath id="282235aafe"><path d="M 377 374 L 399 374 L 399 392 L 377 392 Z M 377 374 " clip-rule="nonzero"/></clipPath><clipPath id="2dc9d62697"><path d="M 114.832031 286.875 L 449.234375 105.683594 L 630.425781 440.089844 L 296.019531 621.28125 Z M 114.832031 286.875 " clip-rule="nonzero"/></clipPath><clipPath id="96394715fc"><path d="M 114.832031 286.875 L 449.234375 105.683594 L 630.425781 440.089844 L 296.019531 621.28125 Z M 114.832031 286.875 " clip-rule="nonzero"/></clipPath><clipPath id="d9b96cadf2"><path d="M 405 383 L 427 383 L 427 400 L 405 400 Z M 405 383 " clip-rule="nonzero"/></clipPath><clipPath id="135e22a3b0"><path d="M 114.832031 286.875 L 449.234375 105.683594 L 630.425781 440.089844 L 296.019531 621.28125 Z M 114.832031 286.875 " clip-rule="nonzero"/></clipPath><clipPath id="5c525b8908"><path d="M 114.832031 286.875 L 449.234375 105.683594 L 630.425781 440.089844 L 296.019531 621.28125 Z M 114.832031 286.875 " clip-rule="nonzero"/></clipPath><clipPath id="b8ddbfdd88"><path d="M 323 328 L 345 328 L 345 346 L 323 346 Z M 323 328 " clip-rule="nonzero"/></clipPath><clipPath id="67ff5aaea7"><path d="M 114.832031 286.875 L 449.234375 105.683594 L 630.425781 440.089844 L 296.019531 621.28125 Z M 114.832031 286.875 " clip-rule="nonzero"/></clipPath><clipPath id="666450d6db"><path d="M 114.832031 286.875 L 449.234375 105.683594 L 630.425781 440.089844 L 296.019531 621.28125 Z M 114.832031 286.875 " clip-rule="nonzero"/></clipPath><clipPath id="6dfdc24dc5"><path d="M 351 337 L 373 337 L 373 354 L 351 354 Z M 351 337 " clip-rule="nonzero"/></clipPath><clipPath id="2d0d34453c"><path d="M 114.832031 286.875 L 449.234375 105.683594 L 630.425781 440.089844 L 296.019531 621.28125 Z M 114.832031 286.875 " clip-rule="nonzero"/></clipPath><clipPath id="4b9becfa24"><path d="M 114.832031 286.875 L 449.234375 105.683594 L 630.425781 440.089844 L 296.019531 621.28125 Z M 114.832031 286.875 " clip-rule="nonzero"/></clipPath><clipPath id="ed43a88d02"><path d="M 385 347 L 407 347 L 407 364 L 385 364 Z M 385 347 " clip-rule="nonzero"/></clipPath><clipPath id="1b809628b2"><path d="M 114.832031 286.875 L 449.234375 105.683594 L 630.425781 440.089844 L 296.019531 621.28125 Z M 114.832031 286.875 " clip-rule="nonzero"/></clipPath><clipPath id="76a0395642"><path d="M 114.832031 286.875 L 449.234375 105.683594 L 630.425781 440.089844 L 296.019531 621.28125 Z M 114.832031 286.875 " clip-rule="nonzero"/></clipPath><clipPath id="dd74fb2028"><path d="M 413 355 L 435 355 L 435 372 L 413 372 Z M 413 355 " clip-rule="nonzero"/></clipPath><clipPath id="d9298d640b"><path d="M 114.832031 286.875 L 449.234375 105.683594 L 630.425781 440.089844 L 296.019531 621.28125 Z M 114.832031 286.875 " clip-rule="nonzero"/></clipPath><clipPath id="b1bfa2d810"><path d="M 114.832031 286.875 L 449.234375 105.683594 L 630.425781 440.089844 L 296.019531 621.28125 Z M 114.832031 286.875 " clip-rule="nonzero"/></clipPath><clipPath id="134fbc0bbb"><path d="M 331 301 L 354 301 L 354 318 L 331 318 Z M 331 301 " clip-rule="nonzero"/></clipPath><clipPath id="267b3108e8"><path d="M 114.832031 286.875 L 449.234375 105.683594 L 630.425781 440.089844 L 296.019531 621.28125 Z M 114.832031 286.875 " clip-rule="nonzero"/></clipPath><clipPath id="0f2cafbff1"><path d="M 114.832031 286.875 L 449.234375 105.683594 L 630.425781 440.089844 L 296.019531 621.28125 Z M 114.832031 286.875 " clip-rule="nonzero"/></clipPath><clipPath id="1261c60f3f"><path d="M 359 309 L 381 309 L 381 326 L 359 326 Z M 359 309 " clip-rule="nonzero"/></clipPath><clipPath id="9156dbd3cb"><path d="M 114.832031 286.875 L 449.234375 105.683594 L 630.425781 440.089844 L 296.019531 621.28125 Z M 114.832031 286.875 " clip-rule="nonzero"/></clipPath><clipPath id="a15b50352c"><path d="M 114.832031 286.875 L 449.234375 105.683594 L 630.425781 440.089844 L 296.019531 621.28125 Z M 114.832031 286.875 " clip-rule="nonzero"/></clipPath><clipPath id="61a8058ea7"><path d="M 393 319 L 416 319 L 416 337 L 393 337 Z M 393 319 " clip-rule="nonzero"/></clipPath><clipPath id="3e647ba3fc"><path d="M 114.832031 286.875 L 449.234375 105.683594 L 630.425781 440.089844 L 296.019531 621.28125 Z M 114.832031 286.875 " clip-rule="nonzero"/></clipPath><clipPath id="4e8f9d3b27"><path d="M 114.832031 286.875 L 449.234375 105.683594 L 630.425781 440.089844 L 296.019531 621.28125 Z M 114.832031 286.875 " clip-rule="nonzero"/></clipPath><clipPath id="2fede4d6fb"><path d="M 421 327 L 443 327 L 443 345 L 421 345 Z M 421 327 " clip-rule="nonzero"/></clipPath><clipPath id="ebf97e24ac"><path d="M 114.832031 286.875 L 449.234375 105.683594 L 630.425781 440.089844 L 296.019531 621.28125 Z M 114.832031 286.875 " clip-rule="nonzero"/></clipPath><clipPath id="d3a85e3714"><path d="M 114.832031 286.875 L 449.234375 105.683594 L 630.425781 440.089844 L 296.019531 621.28125 Z M 114.832031 286.875 " clip-rule="nonzero"/></clipPath></defs><g clip-path="url(#5e496953c3)"><path fill="#000000" d="M 701.089844 259.390625 C 700.21875 244.28125 705.765625 227.386719 695.722656 214.242188 C 678.125 209.398438 660.574219 204.496094 642.921875 200.171875 C 641.996094 178.320312 643.726562 156.402344 642.121094 134.609375 C 639.578125 119.734375 621.460938 124.917969 610.953125 124.804688 C 519.890625 129.359375 435.980469 180.851562 382.425781 253.214844 C 324.828125 174.796875 230.421875 120.765625 131.5625 124.796875 C 129.597656 126.46875 125.617188 129.8125 123.59375 131.484375 C 120.589844 154.144531 123.425781 177.273438 122.207031 200.105469 C 102.191406 208.179688 72.59375 206.914062 63.066406 229.984375 C 66.820312 239.097656 67.6875 248.957031 67.28125 258.757812 C 66.410156 374.425781 68.085938 490.046875 66.46875 605.667969 C 64.964844 614.375 66.582031 629.777344 79.105469 627.066406 C 119.558594 612.363281 163.125 607.058594 206.058594 609.542969 C 264.402344 614.09375 325 627.765625 372.949219 662.707031 C 377.625 662.707031 386.917969 662.707031 391.527344 662.761719 C 418.074219 642.402344 450.269531 631.335938 482.070312 622.167969 C 550.226562 603.082031 623.804688 604.867188 690.796875 627.757812 C 705.105469 625.339844 701.238281 609.65625 701.363281 599.265625 C 700.75 486.015625 701.269531 372.699219 701.089844 259.390625 Z M 91.632812 595.746094 C 91.984375 476.316406 91.578125 356.832031 91.804688 237.414062 C 102.019531 233.78125 112.292969 230.152344 122.566406 226.574219 C 122.339844 321.949219 122.394531 417.335938 122.507812 512.710938 C 121.183594 530.066406 142.882812 527.007812 154.195312 528.105469 C 221.71875 530.925781 283.171875 565.242188 332.226562 609.816406 C 256.503906 579.257812 170.289062 572.335938 91.632812 595.746094 Z M 421.257812 615.933594 C 458.710938 579.3125 501.878906 546.453125 553.183594 532.316406 C 579.617188 523.371094 607.597656 522.511719 635.070312 519.917969 C 643.953125 518.820312 642.109375 507.753906 642.742188 501.519531 C 642.6875 410.292969 642.628906 319.070312 642.6875 227.839844 C 653.707031 231.183594 664.734375 234.527344 675.808594 237.753906 C 677.367188 357.183594 675.867188 476.667969 676.554688 596.085938 C 592.601562 572.855469 500.90625 581.15625 421.257812 615.933594 Z M 421.257812 615.933594 " fill-opacity="1" fill-rule="nonzero"/></g><g clip-path="url(#5c4ce5210f)"><g clip-path="url(#f1c11507fb)"><g clip-path="url(#c5cabd293a)"><path fill="#ffffff" d="M 567.730469 346.476562 L 223.238281 244.105469 C 204.246094 238.460938 184.207031 249.328125 178.554688 268.316406 L 158.078125 337.214844 C 152.429688 356.207031 163.292969 376.257812 182.289062 381.898438 L 285.613281 412.601562 C 285.621094 412.601562 285.632812 412.609375 285.640625 412.609375 C 285.652344 412.613281 285.660156 412.613281 285.671875 412.617188 L 423.367188 453.535156 C 423.390625 453.542969 423.414062 453.550781 423.433594 453.558594 C 423.457031 453.566406 423.480469 453.566406 423.503906 453.574219 L 526.792969 484.265625 C 535.984375 487.003906 545.703125 485.996094 554.148438 481.421875 C 562.589844 476.84375 568.742188 469.253906 571.464844 460.050781 L 591.941406 391.15625 C 594.675781 381.964844 593.667969 372.242188 589.09375 363.800781 C 584.519531 355.355469 576.925781 349.203125 567.730469 346.476562 Z M 296.625 400.878906 L 329.382812 290.644531 L 453.394531 327.5 L 420.640625 437.734375 Z M 171.855469 341.308594 L 192.332031 272.410156 C 194.023438 266.710938 197.878906 262.234375 202.738281 259.601562 C 207.589844 256.972656 213.449219 256.195312 219.144531 257.882812 L 315.605469 286.550781 L 282.847656 396.785156 L 186.386719 368.121094 C 174.992188 364.730469 168.476562 352.703125 171.855469 341.308594 Z M 578.160156 387.070312 L 557.6875 455.96875 C 554.40625 467.007812 541.917969 473.773438 530.878906 470.492188 L 434.417969 441.828125 L 467.171875 331.597656 L 563.632812 360.261719 C 569.148438 361.902344 573.707031 365.589844 576.449219 370.65625 C 579.195312 375.722656 579.796875 381.554688 578.160156 387.070312 Z M 578.160156 387.070312 " fill-opacity="1" fill-rule="nonzero"/></g></g></g><g clip-path="url(#3d5ee7a10d)"><g clip-path="url(#7d27f33dfd)"><g clip-path="url(#65d9d48c4a)"><path fill="#ffffff" d="M 316.546875 384.304688 C 312.738281 383.171875 308.746094 385.335938 307.613281 389.144531 C 306.480469 392.957031 308.644531 396.949219 312.453125 398.082031 L 319.34375 400.128906 C 321.242188 400.695312 323.195312 400.4375 324.816406 399.5625 C 326.433594 398.683594 327.714844 397.1875 328.277344 395.289062 C 329.410156 391.476562 327.246094 387.484375 323.4375 386.351562 Z M 316.546875 384.304688 " fill-opacity="1" fill-rule="nonzero"/></g></g></g><g clip-path="url(#070f7608aa)"><g clip-path="url(#755bd8784c)"><g clip-path="url(#98ce402984)"><path fill="#ffffff" d="M 344.101562 392.492188 C 340.292969 391.359375 336.292969 393.527344 335.160156 397.335938 C 334.03125 401.136719 336.199219 405.136719 340.003906 406.273438 L 346.890625 408.320312 C 348.796875 408.882812 350.75 408.625 352.371094 407.75 C 353.988281 406.871094 355.269531 405.375 355.835938 403.476562 C 356.964844 399.675781 354.796875 395.675781 350.992188 394.539062 Z M 344.101562 392.492188 " fill-opacity="1" fill-rule="nonzero"/></g></g></g><g clip-path="url(#250900e6ce)"><g clip-path="url(#278715400e)"><g clip-path="url(#bfc4c3adec)"><path fill="#ffffff" d="M 378.558594 402.730469 C 374.746094 401.597656 370.753906 403.761719 369.621094 407.574219 C 368.488281 411.382812 370.652344 415.375 374.460938 416.507812 L 381.351562 418.554688 C 383.25 419.121094 385.207031 418.863281 386.824219 417.988281 C 388.441406 417.109375 389.726562 415.621094 390.289062 413.714844 C 391.417969 409.902344 389.253906 405.910156 385.445312 404.777344 Z M 378.558594 402.730469 " fill-opacity="1" fill-rule="nonzero"/></g></g></g><g clip-path="url(#0cbffe2f90)"><g clip-path="url(#0dac9c3519)"><g clip-path="url(#a6b7b0207f)"><path fill="#ffffff" d="M 406.109375 410.917969 C 402.300781 409.785156 398.308594 411.949219 397.175781 415.761719 C 396.042969 419.570312 398.207031 423.566406 402.015625 424.695312 L 408.90625 426.746094 C 410.804688 427.308594 412.757812 427.050781 414.378906 426.175781 C 415.996094 425.296875 417.28125 423.808594 417.84375 421.902344 C 418.972656 418.09375 416.808594 414.097656 413 412.964844 Z M 406.109375 410.917969 " fill-opacity="1" fill-rule="nonzero"/></g></g></g><g clip-path="url(#0285789dea)"><g clip-path="url(#45aa64d0b7)"><g clip-path="url(#baeee85bde)"><path fill="#ffffff" d="M 324.738281 356.738281 C 320.933594 355.613281 316.933594 357.765625 315.792969 361.578125 C 314.667969 365.386719 316.828125 369.390625 320.632812 370.523438 L 327.523438 372.578125 C 329.425781 373.140625 331.386719 372.882812 333.003906 372.003906 C 334.613281 371.132812 335.902344 369.640625 336.472656 367.738281 C 337.597656 363.933594 335.4375 359.929688 331.632812 358.792969 Z M 324.738281 356.738281 " fill-opacity="1" fill-rule="nonzero"/></g></g></g><g clip-path="url(#cf6ca4cee0)"><g clip-path="url(#18812b50b8)"><g clip-path="url(#16fbd48894)"><path fill="#ffffff" d="M 360.5625 380.191406 C 362.1875 379.308594 363.464844 377.816406 364.027344 375.917969 C 365.152344 372.109375 362.988281 368.109375 359.179688 366.984375 L 352.285156 364.941406 C 348.472656 363.820312 344.472656 365.976562 343.351562 369.789062 C 342.226562 373.597656 344.394531 377.597656 348.199219 378.722656 L 355.09375 380.765625 C 357 381.320312 358.945312 381.066406 360.5625 380.191406 Z M 360.5625 380.191406 " fill-opacity="1" fill-rule="nonzero"/></g></g></g><g clip-path="url(#282235aafe)"><g clip-path="url(#2dc9d62697)"><g clip-path="url(#96394715fc)"><path fill="#ffffff" d="M 386.742188 375.171875 C 382.929688 374.039062 378.941406 376.207031 377.800781 380.003906 C 376.667969 383.816406 378.832031 387.808594 382.640625 388.949219 L 389.53125 391.003906 C 391.4375 391.566406 393.390625 391.308594 395.011719 390.433594 C 396.628906 389.554688 397.910156 388.058594 398.480469 386.164062 C 399.609375 382.355469 397.445312 378.363281 393.640625 377.21875 Z M 386.742188 375.171875 " fill-opacity="1" fill-rule="nonzero"/></g></g></g><g clip-path="url(#d9b96cadf2)"><g clip-path="url(#135e22a3b0)"><g clip-path="url(#5c525b8908)"><path fill="#ffffff" d="M 414.296875 383.359375 C 410.492188 382.238281 406.488281 384.398438 405.359375 388.210938 C 404.234375 392.023438 406.398438 396.015625 410.210938 397.148438 L 417.105469 399.191406 C 419 399.75 420.953125 399.492188 422.574219 398.617188 C 424.191406 397.738281 425.480469 396.246094 426.042969 394.339844 C 427.167969 390.527344 425 386.53125 421.191406 385.402344 Z M 414.296875 383.359375 " fill-opacity="1" fill-rule="nonzero"/></g></g></g><g clip-path="url(#b8ddbfdd88)"><g clip-path="url(#67ff5aaea7)"><g clip-path="url(#666450d6db)"><path fill="#ffffff" d="M 335.726562 345.015625 C 337.632812 345.578125 339.582031 345.3125 341.195312 344.441406 C 342.816406 343.5625 344.101562 342.066406 344.664062 340.164062 C 345.792969 336.347656 343.621094 332.351562 339.8125 331.226562 L 332.917969 329.183594 C 329.097656 328.046875 325.097656 330.230469 323.980469 334.035156 C 322.851562 337.851562 325.023438 341.847656 328.832031 342.972656 Z M 335.726562 345.015625 " fill-opacity="1" fill-rule="nonzero"/></g></g></g><g clip-path="url(#6dfdc24dc5)"><g clip-path="url(#2d0d34453c)"><g clip-path="url(#4b9becfa24)"><path fill="#ffffff" d="M 363.273438 353.207031 C 365.179688 353.769531 367.132812 353.511719 368.753906 352.636719 C 370.371094 351.757812 371.652344 350.261719 372.214844 348.371094 C 373.351562 344.570312 371.183594 340.570312 367.378906 339.433594 L 360.488281 337.378906 C 356.671875 336.242188 352.683594 338.410156 351.546875 342.214844 C 350.410156 346.019531 352.578125 350.019531 356.382812 351.152344 Z M 363.273438 353.207031 " fill-opacity="1" fill-rule="nonzero"/></g></g></g><g clip-path="url(#ed43a88d02)"><g clip-path="url(#1b809628b2)"><g clip-path="url(#76a0395642)"><path fill="#ffffff" d="M 394.925781 347.609375 C 391.121094 346.484375 387.117188 348.644531 385.988281 352.460938 C 384.863281 356.265625 387.03125 360.265625 390.835938 361.394531 L 397.734375 363.441406 C 399.632812 364 401.585938 363.742188 403.203125 362.867188 C 404.820312 361.992188 406.109375 360.492188 406.675781 358.589844 C 407.796875 354.777344 405.628906 350.777344 401.824219 349.652344 Z M 394.925781 347.609375 " fill-opacity="1" fill-rule="nonzero"/></g></g></g><g clip-path="url(#dd74fb2028)"><g clip-path="url(#d9298d640b)"><g clip-path="url(#b1bfa2d810)"><path fill="#ffffff" d="M 422.503906 355.792969 C 418.695312 354.660156 414.695312 356.835938 413.558594 360.632812 C 412.425781 364.441406 414.589844 368.433594 418.398438 369.578125 L 425.289062 371.628906 C 427.1875 372.195312 429.148438 371.933594 430.765625 371.058594 C 432.378906 370.183594 433.660156 368.6875 434.234375 366.792969 C 435.367188 362.980469 433.203125 358.988281 429.398438 357.847656 Z M 422.503906 355.792969 " fill-opacity="1" fill-rule="nonzero"/></g></g></g><g clip-path="url(#134fbc0bbb)"><g clip-path="url(#267b3108e8)"><g clip-path="url(#0f2cafbff1)"><path fill="#ffffff" d="M 343.910156 317.457031 C 345.808594 318.019531 347.765625 317.761719 349.382812 316.886719 C 351 316.007812 352.28125 314.515625 352.847656 312.613281 C 353.980469 308.804688 351.816406 304.808594 348.003906 303.675781 L 341.117188 301.628906 C 337.304688 300.496094 333.3125 302.660156 332.179688 306.472656 C 331.046875 310.28125 333.210938 314.277344 337.023438 315.40625 Z M 343.910156 317.457031 " fill-opacity="1" fill-rule="nonzero"/></g></g></g><g clip-path="url(#1261c60f3f)"><g clip-path="url(#9156dbd3cb)"><g clip-path="url(#a15b50352c)"><path fill="#ffffff" d="M 371.46875 325.648438 C 373.367188 326.207031 375.320312 325.949219 376.9375 325.074219 C 378.554688 324.199219 379.835938 322.703125 380.40625 320.808594 C 381.539062 316.996094 379.371094 312.996094 375.558594 311.867188 L 368.671875 309.820312 C 364.863281 308.691406 360.867188 310.851562 359.734375 314.660156 C 358.601562 318.46875 360.769531 322.472656 364.582031 323.601562 Z M 371.46875 325.648438 " fill-opacity="1" fill-rule="nonzero"/></g></g></g><g clip-path="url(#61a8058ea7)"><g clip-path="url(#3e647ba3fc)"><g clip-path="url(#4e8f9d3b27)"><path fill="#ffffff" d="M 405.925781 335.878906 C 407.824219 336.441406 409.777344 336.1875 411.394531 335.308594 C 413.007812 334.4375 414.289062 332.941406 414.859375 331.035156 C 415.992188 327.226562 413.828125 323.234375 410.019531 322.101562 L 403.128906 320.054688 C 399.320312 318.921875 395.328125 321.085938 394.195312 324.894531 C 393.0625 328.703125 395.226562 332.699219 399.035156 333.832031 Z M 405.925781 335.878906 " fill-opacity="1" fill-rule="nonzero"/></g></g></g><g clip-path="url(#2fede4d6fb)"><g clip-path="url(#ebf97e24ac)"><g clip-path="url(#d3a85e3714)"><path fill="#ffffff" d="M 437.574219 330.289062 L 430.683594 328.242188 C 426.875 327.109375 422.882812 329.273438 421.75 333.082031 C 420.617188 336.894531 422.78125 340.886719 426.589844 342.019531 L 433.480469 344.066406 C 435.378906 344.632812 437.332031 344.375 438.953125 343.496094 C 440.570312 342.621094 441.84375 341.128906 442.417969 339.226562 C 443.546875 335.414062 441.382812 331.421875 437.574219 330.289062 Z M 437.574219 330.289062 " fill-opacity="1" fill-rule="nonzero"/></g></g></g></svg>